<?xml version="1.0" encoding="UTF-8" standalone="no"?>
<svg
   xmlns:dc="http://purl.org/dc/elements/1.1/"
   xmlns:cc="http://creativecommons.org/ns#"
   xmlns:rdf="http://www.w3.org/1999/02/22-rdf-syntax-ns#"
   xmlns:svg="http://www.w3.org/2000/svg"
   xmlns="http://www.w3.org/2000/svg"
   xmlns:sodipodi="http://sodipodi.sourceforge.net/DTD/sodipodi-0.dtd"
   xmlns:inkscape="http://www.inkscape.org/namespaces/inkscape"
   height="512"
   viewBox="0 0 64 64"
   width="512"
   version="1.1"
   id="svg77"
   sodipodi:docname="coding.svg"
   inkscape:version="0.92.4 (5da689c313, 2019-01-14)">
  <metadata
     id="metadata83">
    <rdf:RDF>
      <cc:Work
         rdf:about="">
        <dc:format>image/svg+xml</dc:format>
        <dc:type
           rdf:resource="http://purl.org/dc/dcmitype/StillImage" />
        <dc:title></dc:title>
      </cc:Work>
    </rdf:RDF>
  </metadata>
  <defs
     id="defs81" />
  <sodipodi:namedview
     pagecolor="#ffffff"
     bordercolor="#666666"
     borderopacity="1"
     objecttolerance="10"
     gridtolerance="10"
     guidetolerance="10"
     inkscape:pageopacity="0"
     inkscape:pageshadow="2"
     inkscape:window-width="2560"
     inkscape:window-height="1361"
     id="namedview79"
     showgrid="false"
     inkscape:zoom="0.4609375"
     inkscape:cx="256"
     inkscape:cy="256"
     inkscape:window-x="-9"
     inkscape:window-y="-9"
     inkscape:window-maximized="1"
     inkscape:current-layer="svg77" />
  <g
     id="Source_code_config"
     data-name="Source code config">
    <path
       d="m7 9h44a0 0 0 0 1 0 0v50a2 2 0 0 1 -2 2h-40a2 2 0 0 1 -2-2v-50a0 0 0 0 1 0 0z"
       fill="#ffeb99"
       id="path2" />
    <path
       d="m7 30v29a2 2 0 0 0 2 2h29a30.982 30.982 0 0 1 -31-31z"
       fill="#ffde55"
       id="path4" />
    <path
       d="m49 3h-40a2.006 2.006 0 0 0 -2 2v4h44v-4a2.006 2.006 0 0 0 -2-2z"
       fill="#004fac"
       id="path6" />
    <path
       d="m57.16 54.33v.01l2.33 2.32-2.83 2.83-2.33-2.33a7.031 7.031 0 0 1 -1.33.55v3.29h-4v-3.29a7.031 7.031 0 0 1 -1.33-.55l-2.33 2.33-2.83-2.83 2.33-2.32v-.01a7.031 7.031 0 0 1 -.55-1.33h-3.29v-4h3.29a7.031 7.031 0 0 1 .55-1.33l-2.33-2.33 2.83-2.83 2.32 2.33h.01a7.031 7.031 0 0 1 1.33-.55v-3.29h4v3.29a7.031 7.031 0 0 1 1.33.55h.01l2.32-2.33 2.83 2.83-2.33 2.33a7.031 7.031 0 0 1 .55 1.33h3.29v4h-3.29a7.031 7.031 0 0 1 -.55 1.33z"
       fill="#ff9811"
       id="path8" />
    <circle
       cx="51"
       cy="51"
       fill="#f1f2f2"
       r="3"
       id="circle10" />
    <path
       d="m11 51v3h20l-3-3z"
       fill="#d80027"
       id="path12" />
    <path
       d="m28 51 3-3h-20v3z"
       fill="#ff9811"
       id="path14" />
    <path
       d="m31 54 6-3-6-3-3 3z"
       fill="#d1d3d4"
       id="path16" />
    <path
       d="m11 54v-3-3h-4v6z"
       fill="#006df0"
       id="path18" />
    <path
       d="m6 54h1v-6h-1a3 3 0 0 0 0 6z"
       fill="#f1f2f2"
       id="path20" />
    <path
       d="m41 62h-32a3 3 0 0 1 -3-3v-2a1 1 0 0 1 2 0v2a1 1 0 0 0 1 1h32a1 1 0 0 1 0 2z"
       id="path22" />
    <path
       d="m20 44a1 1 0 0 1 -.554-.168l-3-2a1 1 0 0 1 0-1.664l3-2a1 1 0 1 1 1.11 1.664l-1.756 1.168 1.752 1.168a1 1 0 0 1 -.552 1.832z"
       id="path24" />
    <path
       d="m33 44a1 1 0 0 1 -.556-1.832l1.756-1.168-1.752-1.168a1 1 0 0 1 1.11-1.664l3 2a1 1 0 0 1 0 1.664l-3 2a1 1 0 0 1 -.558.168z"
       id="path26" />
    <path
       d="m23 45a1 1 0 0 1 -.949-1.316l2-6a1 1 0 0 1 1.9.632l-2 6a1 1 0 0 1 -.951.684z"
       id="path28" />
    <path
       d="m26 42h2v2h-2z"
       id="path30" />
    <path
       d="m29 42h2v2h-2z"
       id="path32" />
    <path
       d="m21 29h2v2h-2z"
       id="path34" />
    <path
       d="m25 29h12v2h-12z"
       id="path36" />
    <path
       d="m39 29h4v2h-4z"
       id="path38" />
    <path
       d="m17 33h6v2h-6z"
       id="path40" />
    <path
       d="m25 33h2v2h-2z"
       id="path42" />
    <path
       d="m10 5h2v2h-2z"
       id="path44" />
    <path
       d="m14 5h2v2h-2z"
       id="path46" />
    <path
       d="m18 5h2v2h-2z"
       id="path48" />
    <path
       d="m49 2h-40a3 3 0 0 0 -3 3v39a1 1 0 0 0 2 0v-34h42v27a1 1 0 0 0 2 0v-32a3 3 0 0 0 -3-3zm-41 6v-3a1 1 0 0 1 1-1h40a1 1 0 0 1 1 1v3z"
       id="path50" />
    <path
       d="m13 14a1 1 0 0 0 -1 1v29a1 1 0 0 0 2 0v-29a1 1 0 0 0 -1-1z"
       id="path52" />
    <path
       d="m20 19a1 1 0 0 0 .556-1.832l-1.756-1.168 1.752-1.168a1 1 0 1 0 -1.11-1.664l-3 2a1 1 0 0 0 0 1.664l3 2a1 1 0 0 0 .558.168z"
       id="path54" />
    <path
       d="m27.168 18.555a1 1 0 0 0 1.387.277l3-2a1 1 0 0 0 0-1.664l-3-2a1 1 0 0 0 -1.11 1.664l1.755 1.168-1.752 1.168a1 1 0 0 0 -.28 1.387z"
       id="path56" />
    <path
       d="m25.316 12.051a1 1 0 0 0 -1.265.633l-2 6a1 1 0 0 0 1.9.632l2-6a1 1 0 0 0 -.635-1.265z"
       id="path58" />
    <path
       d="m17 21h6v2h-6z"
       id="path60" />
    <path
       d="m25 21h2v2h-2z"
       id="path62" />
    <path
       d="m21 25h12v2h-12z"
       id="path64" />
    <path
       d="m39 25h9v2h-9z"
       id="path66" />
    <path
       d="m35 25h2v2h-2z"
       id="path68" />
    <path
       d="m51 55a4 4 0 1 1 4-4 4 4 0 0 1 -4 4zm0-6a2 2 0 1 0 2 2 2 2 0 0 0 -2-2z"
       id="path70" />
    <path
       d="m53 62h-4a1 1 0 0 1 -1-1v-2.582l-.123-.051-1.83 1.83a1 1 0 0 1 -1.414 0l-2.83-2.83a1 1 0 0 1 0-1.415l1.831-1.824-.052-.128h-2.582a1 1 0 0 1 -1-1v-4a1 1 0 0 1 1-1h2.582c.017-.042.033-.083.051-.123l-1.83-1.83a1 1 0 0 1 0-1.414l2.83-2.83a1 1 0 0 1 .707-.293 1 1 0 0 1 .708.294l1.822 1.831.13-.053v-2.582a1 1 0 0 1 1-1h4a1 1 0 0 1 1 1v2.582l.129.053 1.822-1.835a1 1 0 0 1 .708-.294 1 1 0 0 1 .707.293l2.83 2.83a1 1 0 0 1 0 1.414l-1.83 1.83c.018.04.034.081.051.123h2.583a1 1 0 0 1 1 1v4a1 1 0 0 1 -1 1h-2.582l-.053.128 1.835 1.828a1 1 0 0 1 0 1.415l-2.83 2.83a1 1 0 0 1 -1.414 0l-1.83-1.83-.126.051v2.582a1 1 0 0 1 -1 1zm-3-2h2v-2.29a1 1 0 0 1 .709-.957 6.051 6.051 0 0 0 1.141-.47 1 1 0 0 1 1.187.17l1.623 1.623 1.414-1.414-1.62-1.614a1 1 0 0 1 -.294-.708 1.039 1.039 0 0 1 .122-.489 5.991 5.991 0 0 0 .471-1.142 1 1 0 0 1 .957-.709h2.29v-2h-2.29a1 1 0 0 1 -.957-.709 5.991 5.991 0 0 0 -.471-1.142 1 1 0 0 1 .171-1.186l1.623-1.623-1.414-1.415-1.613 1.62a1.037 1.037 0 0 1 -1.2.172 6.051 6.051 0 0 0 -1.141-.47 1 1 0 0 1 -.708-.957v-2.29h-2v2.29a1 1 0 0 1 -.709.957 6.051 6.051 0 0 0 -1.141.47 1.036 1.036 0 0 1 -1.2-.172l-1.613-1.62-1.413 1.415 1.623 1.623a1 1 0 0 1 .171 1.186 5.991 5.991 0 0 0 -.471 1.142 1 1 0 0 1 -.957.709h-2.29v2h2.29a1 1 0 0 1 .957.709 5.991 5.991 0 0 0 .471 1.142 1 1 0 0 1 .122.479 1.022 1.022 0 0 1 -.294.718l-1.62 1.614 1.414 1.414 1.623-1.623a1 1 0 0 1 1.187-.17 6.051 6.051 0 0 0 1.141.47 1 1 0 0 1 .709.957z"
       id="path72" />
    <path
       d="m37.447 50.105-6-3a1 1 0 0 0 -.447-.105h-25a4 4 0 0 0 0 8h25a1 1 0 0 0 .447-.1l6-3a1 1 0 0 0 0-1.79zm-31.447 2.895a2 2 0 0 1 0-4zm6-4h16.586l-1 1h-15.586zm-2 4h-2v-4h2zm2-1h15.586l1 1h-16.586zm19.2.783-1.786-1.783 1.786-1.783 3.564 1.783z"
       id="path74" />
  </g>
</svg>
